<svg data-v-423bf9ae="" xmlns="http://www.w3.org/2000/svg" viewBox="0 0 195 90" class="iconLeft"><!----><!----><!----><g data-v-423bf9ae="" id="8f07172e-0152-4949-be07-500ccf6372c7" fill="#fff" transform="matrix(4.304160523768314,0,0,4.304160523768314,138.64820617055497,3.120517710702863)"><path d="M5.31 3.79L4.70 3.79L4.70 3.79Q4.54 4.58 4.54 5.78L4.54 5.78L4.54 5.78Q4.54 6.57 4.60 7.44L4.60 7.44L4.60 7.44Q4.66 8.32 4.68 8.55L4.68 8.55L4.70 8.85L4.70 8.85Q4.73 9.17 4.73 9.77L4.73 9.77L4.72 10.63L4.72 10.63Q4.70 10.84 4.70 11.21L4.70 11.21L4.70 11.21Q4.70 11.56 4.76 12.49L4.76 12.49L4.76 12.49Q4.83 13.30 4.83 14.01L4.83 14.01L4.83 14.01Q4.83 15.02 4.61 15.69L4.61 15.69L4.61 15.69Q4.40 16.35 3.82 16.58L3.82 16.58L3.82 16.58Q3.57 16.70 3.15 16.70L3.15 16.70L3.15 16.70Q2.80 16.70 2.38 16.63L2.38 16.63L2.38 16.63Q1.90 16.58 1.74 16.58L1.74 16.58L1.74 16.58Q1.55 16.58 1.38 16.46L1.38 16.46L1.38 16.46Q1.20 16.34 1.04 16.18L1.04 16.18L1.04 16.18Q0.88 16.03 0.83 15.99L0.83 15.99L0.83 15.99Q0.55 15.71 0.38 15.23L0.38 15.23L0.38 15.23Q0.21 14.74 0.21 14.22L0.21 14.22L0.21 14.22Q0.21 13.48 0.55 12.99L0.55 12.99L0.55 12.99Q0.63 12.99 0.85 12.94L0.85 12.94L0.85 12.94Q0.92 12.92 1.08 12.89L1.08 12.89L1.08 12.89Q1.23 12.87 1.36 12.87L1.36 12.87L1.36 12.87Q1.61 12.87 1.74 12.99L1.74 12.99L1.74 12.99Q1.53 13.38 1.41 13.70L1.41 13.70L1.41 13.70Q1.30 14.01 1.30 14.38L1.30 14.38L1.30 14.38Q1.30 14.70 1.43 15.08L1.43 15.08L1.43 15.08Q1.43 15.33 1.67 15.51L1.67 15.51L1.67 15.51Q1.90 15.68 2.34 15.68L2.34 15.68L2.62 15.39L2.62 15.39Q2.62 14.52 2.77 13.01L2.77 13.01L2.77 13.01Q2.91 11.35 2.91 10.63L2.91 10.63L2.91 10.63Q2.91 10.26 2.83 9.48L2.83 9.48L2.83 9.48Q2.77 9.11 2.76 8.83L2.76 8.83L2.76 8.83Q2.73 8.53 2.73 7.94L2.73 7.94L2.73 7.94Q2.73 7.84 2.70 7.59L2.70 7.59L2.70 7.59Q2.65 7.25 2.66 6.96L2.66 6.96L2.66 6.96Q2.67 6.79 2.65 6.34L2.65 6.34L2.65 6.34Q2.62 6.01 2.62 5.88L2.62 5.88L2.62 5.88Q2.62 5.53 2.53 5.17L2.53 5.17L2.53 5.17Q2.48 4.86 2.48 4.69L2.48 4.69L2.48 4.69Q2.48 4.58 2.50 4.47L2.50 4.47L2.50 4.47Q2.52 4.35 2.52 4.24L2.52 4.24L2.52 4.24Q2.52 3.98 2.34 3.79L2.34 3.79L2.34 3.79Q2.27 3.86 2.10 3.92L2.10 3.92L2.10 3.92Q2.03 3.93 1.85 3.93L1.85 3.93L1.85 3.93Q1.65 3.93 1.50 3.96L1.50 3.96L1.50 3.96Q1.34 3.99 1.13 4.09L1.13 4.09L1.13 4.09Q1.13 4.47 1.03 4.72L1.03 4.72L1.03 4.72Q0.92 4.97 0.55 4.97L0.55 4.97L0.55 4.97Q0.35 4.77 0.29 4.32L0.29 4.32L0.29 4.32Q0.24 3.86 0.24 3.19L0.24 3.19L0.24 3.19Q0.24 3.00 0.39 2.95L0.39 2.95L0.39 2.95Q0.53 2.90 0.83 2.90L0.83 2.90L0.83 2.90Q1.13 2.90 1.58 2.87L1.58 2.87L1.58 2.87Q2.03 2.84 2.24 2.83L2.24 2.83L2.24 2.83Q2.48 2.81 3.07 2.79L3.07 2.79L3.07 2.79Q3.67 2.76 4.10 2.76L4.10 2.76L4.10 2.76Q5.03 2.76 5.60 2.90L5.60 2.90L5.60 2.90Q5.92 3.05 6.11 3.33L6.11 3.33L6.11 3.33Q6.30 3.60 6.30 3.92L6.30 3.92L6.30 3.92Q6.30 4.17 6.19 4.40L6.19 4.40L6.19 4.40Q6.19 4.61 6.15 4.64L6.15 4.64L6.15 4.64Q6.12 4.68 5.88 4.68L5.88 4.68L5.88 4.68Q5.64 4.68 5.57 4.56L5.57 4.56L5.57 4.56Q5.50 4.45 5.47 4.23L5.47 4.23L5.47 4.23Q5.42 3.91 5.31 3.79L5.31 3.79ZM11.87 3.79L11.27 3.79L11.27 3.79Q11.10 4.58 11.10 5.78L11.10 5.78L11.10 5.78Q11.10 6.57 11.16 7.44L11.16 7.44L11.16 7.44Q11.23 8.32 11.24 8.55L11.24 8.55L11.27 8.85L11.27 8.85Q11.30 9.17 11.30 9.77L11.30 9.77L11.28 10.63L11.28 10.63Q11.27 10.84 11.27 11.21L11.27 11.21L11.27 11.21Q11.27 11.56 11.33 12.49L11.33 12.49L11.33 12.49Q11.40 13.30 11.40 14.01L11.40 14.01L11.40 14.01Q11.40 15.02 11.18 15.69L11.18 15.69L11.18 15.69Q10.96 16.35 10.39 16.58L10.39 16.58L10.39 16.58Q10.14 16.70 9.72 16.70L9.72 16.70L9.72 16.70Q9.37 16.70 8.95 16.63L8.95 16.63L8.95 16.63Q8.47 16.58 8.30 16.58L8.30 16.58L8.30 16.58Q8.12 16.58 7.95 16.46L7.95 16.46L7.95 16.46Q7.77 16.34 7.61 16.18L7.61 16.18L7.61 16.18Q7.45 16.03 7.39 15.99L7.39 15.99L7.39 15.99Q7.11 15.71 6.94 15.23L6.94 15.23L6.94 15.23Q6.78 14.74 6.78 14.22L6.78 14.22L6.78 14.22Q6.78 13.48 7.11 12.99L7.11 12.99L7.11 12.99Q7.20 12.99 7.42 12.94L7.42 12.94L7.42 12.94Q7.49 12.92 7.64 12.89L7.64 12.89L7.64 12.89Q7.80 12.87 7.92 12.87L7.92 12.87L7.92 12.87Q8.18 12.87 8.30 12.99L8.30 12.99L8.30 12.99Q8.09 13.38 7.98 13.70L7.98 13.70L7.98 13.70Q7.87 14.01 7.87 14.38L7.87 14.38L7.87 14.38Q7.87 14.70 7.99 15.08L7.99 15.08L7.99 15.08Q7.99 15.33 8.23 15.51L8.23 15.51L8.23 15.51Q8.47 15.68 8.90 15.68L8.90 15.68L9.18 15.39L9.18 15.39Q9.18 14.52 9.34 13.01L9.34 13.01L9.34 13.01Q9.48 11.35 9.48 10.63L9.48 10.63L9.48 10.63Q9.48 10.26 9.39 9.48L9.39 9.48L9.39 9.48Q9.34 9.11 9.32 8.83L9.32 8.83L9.32 8.83Q9.30 8.53 9.30 7.94L9.30 7.94L9.30 7.94Q9.30 7.84 9.27 7.59L9.27 7.59L9.27 7.59Q9.21 7.25 9.23 6.96L9.23 6.96L9.23 6.96Q9.24 6.79 9.21 6.34L9.21 6.34L9.21 6.34Q9.18 6.01 9.18 5.88L9.18 5.88L9.18 5.88Q9.18 5.53 9.10 5.17L9.10 5.17L9.10 5.17Q9.04 4.86 9.04 4.69L9.04 4.69L9.04 4.69Q9.04 4.58 9.06 4.47L9.06 4.47L9.06 4.47Q9.09 4.35 9.09 4.24L9.09 4.24L9.09 4.24Q9.09 3.98 8.90 3.79L8.90 3.79L8.90 3.79Q8.83 3.86 8.67 3.92L8.67 3.92L8.67 3.92Q8.60 3.93 8.41 3.93L8.41 3.93L8.41 3.93Q8.22 3.93 8.06 3.96L8.06 3.96L8.06 3.96Q7.91 3.99 7.70 4.09L7.70 4.09L7.70 4.09Q7.70 4.47 7.59 4.72L7.59 4.72L7.59 4.72Q7.49 4.97 7.11 4.97L7.11 4.97L7.11 4.97Q6.92 4.77 6.86 4.32L6.86 4.32L6.86 4.32Q6.80 3.86 6.80 3.19L6.80 3.19L6.80 3.19Q6.80 3.00 6.95 2.95L6.95 2.95L6.95 2.95Q7.10 2.90 7.39 2.90L7.39 2.90L7.39 2.90Q7.70 2.90 8.15 2.87L8.15 2.87L8.15 2.87Q8.60 2.84 8.81 2.83L8.81 2.83L8.81 2.83Q9.04 2.81 9.64 2.79L9.64 2.79L9.64 2.79Q10.23 2.76 10.67 2.76L10.67 2.76L10.67 2.76Q11.59 2.76 12.17 2.90L12.17 2.90L12.17 2.90Q12.49 3.05 12.68 3.33L12.68 3.33L12.68 3.33Q12.87 3.60 12.87 3.92L12.87 3.92L12.87 3.92Q12.87 4.17 12.75 4.40L12.75 4.40L12.75 4.40Q12.75 4.61 12.72 4.64L12.72 4.64L12.72 4.64Q12.68 4.68 12.45 4.68L12.45 4.68L12.45 4.68Q12.21 4.68 12.14 4.56L12.14 4.56L12.14 4.56Q12.07 4.45 12.04 4.23L12.04 4.23L12.04 4.23Q11.98 3.91 11.87 3.79L11.87 3.79Z"></path></g><!----><g data-v-423bf9ae="" id="c3947187-e9e1-4eaa-862c-cc1cede83c37" transform="matrix(1.2211656792286887,0,0,1.2211656792286887,1157.8669321210903,-1177.225825944826)" stroke="none" fill="#D7F9FF"><switch><g><path d="M-855.3 964.1h-87.3c-2.9 0-5.3 2.4-5.3 5.3v63.1c0 2.9 2.4 5.3 5.3 5.3h87.3c2.9 0 5.3-2.4 5.3-5.3v-63.1c0-2.9-2.4-5.3-5.3-5.3zm2.5 68.5c0 1.4-1.1 2.5-2.5 2.5h-87.3c-1.4 0-2.5-1.1-2.5-2.5v-54.7h92.4v54.7zm0-57.5h-92.4v-5.7c0-1.4 1.1-2.5 2.5-2.5h87.3c1.4 0 2.5 1.1 2.5 2.5v5.7z"></path><path d="M-881.4 969.6h-35.3c-.8 0-1.4.6-1.4 1.4s.6 1.4 1.4 1.4h35.3c.8 0 1.4-.6 1.4-1.4s-.6-1.4-1.4-1.4z"></path><circle cx="-941.2" cy="971" r="1.4"></circle><circle cx="-936.6" cy="971" r="1.4"></circle><circle cx="-931.9" cy="971" r="1.4"></circle><path d="M-910.9 1012.3l-7.3-5.1 7.3-5.1-2.5-3.5-12.3 8.6 12.3 8.6zM-890.6 991h-4.9l-11.9 31h4.8zM-884.6 1015.8l12.3-8.6-12.3-8.6-2.5 3.5 7.3 5.1-7.3 5.1z"></path></g></switch></g><!----></svg>